<svg id="icon_shopping" xmlns="http://www.w3.org/2000/svg" xmlns:xlink="http://www.w3.org/1999/xlink" width="20" height="20" viewBox="0 0 20 20">
  <defs>
    <clipPath id="clip-path">
      <rect id="사각형_179" data-name="사각형 179" width="20" height="20" fill="none"/>
    </clipPath>
  </defs>
  <g id="그룹_4202" data-name="그룹 4202" clip-path="url(#clip-path)">
    <path id="패스_6" data-name="패스 6" d="M14.354,5.508H13.333A3.423,3.423,0,0,0,10,2.543,3.423,3.423,0,0,0,6.667,5.508H5.647A2.118,2.118,0,0,0,3.53,7.624V15.34a2.12,2.12,0,0,0,2.116,2.117h8.707A2.119,2.119,0,0,0,16.47,15.34V7.624a2.118,2.118,0,0,0-2.116-2.116M10,3.643a2.318,2.318,0,0,1,2.222,1.865H7.778A2.318,2.318,0,0,1,10,3.643m5.37,11.7a1.019,1.019,0,0,1-1.017,1.017H5.647A1.018,1.018,0,0,1,4.63,15.341h0V7.625A1.019,1.019,0,0,1,5.647,6.608h8.707A1.018,1.018,0,0,1,15.37,7.625Z"/>
  </g>
</svg>
