<svg id="icon_apple" xmlns="http://www.w3.org/2000/svg" xmlns:xlink="http://www.w3.org/1999/xlink" width="20" height="20" viewBox="0 0 20 20">
  <defs>
    <clipPath id="clip-path">
      <rect id="사각형_178" data-name="사각형 178" width="20" height="20" fill="none"/>
    </clipPath>
  </defs>
  <g id="그룹_4200" data-name="그룹 4200" clip-path="url(#clip-path)">
    <path id="패스_5" data-name="패스 5" d="M17.075,7.046a4.2,4.2,0,0,0-2.01,3.538,4.094,4.094,0,0,0,2.491,3.754,9.761,9.761,0,0,1-1.275,2.635c-.794,1.143-1.624,2.286-2.888,2.286s-1.588-.734-3.044-.734c-1.42,0-1.925.758-3.08.758s-1.961-1.059-2.888-2.358a11.4,11.4,0,0,1-1.938-6.149c0-3.61,2.346-5.523,4.657-5.523,1.227,0,2.25.806,3.02.806.734,0,1.877-.854,3.273-.854a4.378,4.378,0,0,1,3.682,1.841M10.217,5a1.339,1.339,0,0,1-.253-.024,1.663,1.663,0,0,1-.036-.337,4.036,4.036,0,0,1,1.023-2.515A4.154,4.154,0,0,1,13.682.717a1.8,1.8,0,0,1,.036.373,4.146,4.146,0,0,1-.987,2.587A3.6,3.6,0,0,1,10.216,5Z" fill="#040000"/>
  </g>
</svg>
